<svg width="63" height="16" viewBox="0 0 63 16" fill="none" xmlns="http://www.w3.org/2000/svg">
<path d="M11.1594 1.02635C10.5227 1.31969 10.2211 2.12635 10.516 2.76635C10.8578 3.51302 11.7827 3.76635 12.4663 3.29969C13.2035 2.79302 13.1767 1.65302 12.4127 1.12635C12.1312 0.93302 11.4677 0.879686 11.1594 1.02635Z" fill="white"/>
<path d="M33.2562 1.27969C33.1959 1.33969 33.1758 2.77302 33.1758 7.31302V13.2664H34.3487H35.5148L35.5349 10.6864C35.555 8.11969 35.555 8.09969 35.7159 7.74636C36.0309 7.04636 36.7212 6.68636 37.6059 6.74636C38.1555 6.78636 38.6179 6.99969 38.886 7.33302C39.2345 7.77969 39.2747 8.11302 39.2747 10.813V13.2664H40.4141H41.5534V10.3464C41.5534 7.19302 41.5266 6.93969 41.1848 6.25969C40.7157 5.34636 39.898 4.82636 38.6849 4.67302C37.5523 4.53302 36.5738 4.79302 35.8097 5.43969L35.4545 5.74636V3.47302V1.19969H34.3956C33.6583 1.19969 33.3098 1.22636 33.2562 1.27969Z" fill="white"/>
<path d="M47.264 1.27969C47.2037 1.33969 47.1836 2.77302 47.1836 7.31302V13.2664H48.3565H49.5293V7.23302V1.19969H48.4369C47.6796 1.19969 47.3176 1.22636 47.264 1.27969Z" fill="white"/>
<path d="M1.77606 1.7066C1.62862 1.7266 1.29351 1.77993 1.02543 1.83993C0.63 1.91993 0.509362 1.97993 0.341808 2.1666C0.234574 2.29327 0.107234 2.5066 0.0737234 2.6466C0.0268085 2.81327 0 4.67327 0 8.07993V13.2666H1.17287H2.34574V11.3266V9.39327L3.10309 9.4466C4.20894 9.5266 5.42872 9.49327 6.05202 9.3666C8.24362 8.9266 9.32936 7.6866 9.33606 5.63327C9.34277 4.0266 8.70606 2.95993 7.35223 2.29993C6.27319 1.77327 5.93809 1.71327 3.85372 1.69993C2.86181 1.6866 1.92351 1.69327 1.77606 1.7066ZM4.79872 3.6666C6.12574 3.83993 6.82947 4.45993 6.85628 5.4866C6.86968 6.01327 6.74234 6.45327 6.49436 6.75327C6.25308 7.0466 5.59628 7.37327 5.06011 7.47327C4.63787 7.55327 2.67415 7.51993 2.46638 7.43327C2.35245 7.3866 2.34574 7.23327 2.34574 5.55993V3.73993L2.56691 3.69993C3.1433 3.6066 4.20223 3.5866 4.79872 3.6666Z" fill="white"/>
<path d="M55.6285 1.77332C53.7318 2.17332 52.2104 3.36665 51.4128 5.07998C51.004 5.94665 50.9102 6.41998 50.9102 7.49998C50.9102 8.57998 51.004 9.05332 51.4061 9.91332C51.8753 10.92 52.4986 11.6533 53.3899 12.24C54.5092 12.98 55.5547 13.2867 56.9354 13.2867C57.8201 13.28 58.4903 13.18 59.0465 12.96C59.2007 12.8933 59.3481 12.8733 59.3749 12.9067C59.4085 12.94 59.6966 13.3133 60.0183 13.7333C60.3468 14.1533 60.7154 14.6267 60.836 14.7867L61.0639 15.0667L61.781 14.52C62.1764 14.2267 62.5383 13.94 62.5853 13.9C62.659 13.8333 62.5316 13.6267 61.8815 12.7867L61.084 11.76L61.5196 11.2867C63.5906 9.08665 63.4498 5.43998 61.2113 3.31998C60.3937 2.54665 59.3347 1.99998 58.2289 1.77332C57.5922 1.63998 56.2383 1.63998 55.6285 1.77332ZM57.9005 3.89998C59.1538 4.22665 60.1122 5.24665 60.4272 6.58665C60.5679 7.17332 60.521 8.25998 60.3266 8.86665C60.1926 9.28665 59.824 9.93332 59.7235 9.93332C59.6899 9.93332 59.3615 9.52665 58.9795 9.03332C58.6042 8.53998 58.2691 8.13332 58.2289 8.13332C58.1351 8.13332 56.7879 9.18665 56.7477 9.29332C56.7008 9.40665 56.8415 9.61998 57.5051 10.48C57.7932 10.8467 57.9541 11.1133 57.9206 11.1467C57.8133 11.2533 56.6338 11.2933 56.2115 11.2C54.8644 10.9267 53.7787 9.84665 53.4503 8.45998C52.9744 6.43332 54.0736 4.41332 55.9435 3.89998C56.3791 3.77998 57.4514 3.77998 57.9005 3.89998Z" fill="white"/>
<path d="M17.5578 4.75994C16.1906 5.0466 15.1786 5.81994 14.7295 6.91327C14.5754 7.29327 14.5754 7.3266 14.5553 10.2799L14.5352 13.2666H15.6745H16.8139L16.834 10.6799C16.8541 8.1466 16.8541 8.09327 17.0082 7.7666C17.1959 7.3666 17.4372 7.09994 17.7924 6.91327C18.0136 6.79327 18.1744 6.7666 18.7307 6.7666C19.4813 6.7666 19.7561 6.8666 20.1515 7.27994C20.6073 7.7466 20.6073 7.75327 20.6274 10.6466L20.6475 13.2666H21.8003H22.953L22.9195 10.2533C22.8793 6.91327 22.8994 7.05994 22.4169 6.29994C22.0013 5.65994 21.3311 5.1866 20.4062 4.8866C19.9572 4.73994 19.7226 4.71327 18.9318 4.69327C18.3152 4.67994 17.846 4.69994 17.5578 4.75994Z" fill="white"/>
<path d="M27.5724 4.76665C25.9504 5.11332 24.7575 6.13998 24.2615 7.59998C24.0604 8.19998 24.0068 9.49998 24.1543 10.2C24.4894 11.7666 25.6555 12.94 27.311 13.3733C28.008 13.56 29.4556 13.5467 30.2465 13.3467C30.8631 13.1933 31.8349 12.7866 31.8349 12.68C31.8349 12.6466 31.6338 12.2666 31.3859 11.84C31.0575 11.26 30.9167 11.0666 30.8363 11.0933C30.776 11.1066 30.5146 11.2 30.2465 11.2933C28.9999 11.7266 27.6729 11.5066 27.0094 10.7533C26.3526 10.0066 26.2319 8.76665 26.7279 7.84665C26.9625 7.41332 27.4651 6.97332 27.9343 6.79332C28.2292 6.67998 28.4637 6.64665 28.953 6.63998C29.6969 6.63332 30.146 6.75332 30.7224 7.09998C30.9368 7.22665 31.1178 7.33332 31.1312 7.33332C31.2049 7.33332 32.036 6.17998 32.036 6.07998C32.036 5.89332 31.4931 5.43332 30.9435 5.15998C30.0387 4.69998 28.6246 4.53998 27.5724 4.76665Z" fill="white"/>
<path d="M10.6307 5.1066C10.5368 5.19993 10.5234 5.6666 10.5234 9.23993V13.2666H11.6963H12.8692V9.13327V4.99993H11.8035C10.9189 4.99993 10.7178 5.01993 10.6307 5.1066Z" fill="white"/>
</svg>
