<svg width="16" height="16" viewBox="0 0 16 16" fill="none" xmlns="http://www.w3.org/2000/svg">
<g clip-path="url(#clip0_46_13218)">
<path d="M1.33398 8.13587C1.33398 6.61025 1.33398 5.84744 1.68012 5.21508C2.02625 4.58272 2.65861 4.19026 3.92334 3.40534L5.25667 2.57783C6.59358 1.74811 7.26203 1.33325 8.00065 1.33325C8.73928 1.33325 9.40773 1.74811 10.7446 2.57783L12.078 3.40534C13.3427 4.19026 13.9751 4.58272 14.3212 5.21508C14.6673 5.84744 14.6673 6.61025 14.6673 8.13587V9.14989C14.6673 11.7505 14.6673 13.0508 13.8863 13.8587C13.1052 14.6666 11.8481 14.6666 9.33398 14.6666H6.66732C4.15316 14.6666 2.89608 14.6666 2.11503 13.8587C1.33398 13.0508 1.33398 11.7505 1.33398 9.14989V8.13587Z" stroke="#A7A7A7" stroke-width="1.2"/>
<path d="M10 12H6" stroke="#A7A7A7" stroke-width="1.2" stroke-linecap="round"/>
</g>
<defs>
<clipPath id="clip0_46_13218">
<rect width="16" height="16" fill="white"/>
</clipPath>
</defs>
</svg>
