<svg width="40" height="40" viewBox="0 0 40 40" fill="none" xmlns="http://www.w3.org/2000/svg">
<path d="M4 4C4 1.79086 5.79086 0 8 0H24L36 12V36C36 38.2091 34.2091 40 32 40H8C5.79086 40 4 38.2091 4 36V4Z" fill="white"/>
<path d="M24 0L36 12H28C25.7909 12 24 10.2091 24 8V0Z" fill="#F0F0F0"/>
<path d="M14.5479 32.126C14.1459 32.126 13.7799 32.024 13.4499 31.82C13.1259 31.61 12.8679 31.328 12.6759 30.974C12.4839 30.614 12.3879 30.203 12.3879 29.741C12.3879 29.273 12.4839 28.859 12.6759 28.499C12.8679 28.139 13.1259 27.857 13.4499 27.653C13.7799 27.449 14.1459 27.347 14.5479 27.347C14.8719 27.347 15.1659 27.413 15.4299 27.545C15.6939 27.677 15.9159 27.854 16.0959 28.076C16.2759 28.292 16.4049 28.538 16.4829 28.814V30.668C16.4049 30.938 16.2759 31.184 16.0959 31.406C15.9159 31.622 15.6939 31.796 15.4299 31.928C15.1659 32.06 14.8719 32.126 14.5479 32.126ZM14.6559 31.289C14.9319 31.289 15.1749 31.223 15.3849 31.091C15.5949 30.959 15.7599 30.776 15.8799 30.542C15.9999 30.308 16.0599 30.038 16.0599 29.732C16.0599 29.426 15.9999 29.156 15.8799 28.922C15.7599 28.688 15.5949 28.508 15.3849 28.382C15.1749 28.25 14.9319 28.184 14.6559 28.184C14.3919 28.184 14.1549 28.25 13.9449 28.382C13.7409 28.508 13.5789 28.688 13.4589 28.922C13.3449 29.156 13.2879 29.426 13.2879 29.732C13.2879 30.038 13.3449 30.308 13.4589 30.542C13.5789 30.776 13.7409 30.959 13.9449 31.091C14.1549 31.223 14.3919 31.289 14.6559 31.289ZM16.0959 32V30.488L16.2759 29.732L16.0509 28.976V25.52L16.9239 25.412L16.9509 25.484V32H16.0959ZM20.2198 32.126C19.7698 32.126 19.3738 32.024 19.0318 31.82C18.6898 31.616 18.4198 31.337 18.2218 30.983C18.0298 30.623 17.9338 30.206 17.9338 29.732C17.9338 29.264 18.0298 28.85 18.2218 28.49C18.4198 28.13 18.6898 27.851 19.0318 27.653C19.3738 27.449 19.7698 27.347 20.2198 27.347C20.6698 27.347 21.0658 27.449 21.4078 27.653C21.7498 27.851 22.0168 28.13 22.2088 28.49C22.4068 28.85 22.5058 29.264 22.5058 29.732C22.5058 30.206 22.4068 30.623 22.2088 30.983C22.0168 31.343 21.7498 31.625 21.4078 31.829C21.0658 32.027 20.6698 32.126 20.2198 32.126ZM20.2198 31.289C20.4958 31.289 20.7358 31.226 20.9398 31.1C21.1498 30.974 21.3118 30.794 21.4258 30.56C21.5458 30.326 21.6058 30.053 21.6058 29.741C21.6058 29.417 21.5458 29.141 21.4258 28.913C21.3118 28.679 21.1498 28.499 20.9398 28.373C20.7358 28.241 20.4958 28.175 20.2198 28.175C19.9438 28.175 19.7008 28.241 19.4908 28.373C19.2868 28.499 19.1248 28.679 19.0048 28.913C18.8908 29.141 18.8338 29.414 18.8338 29.732C18.8338 30.05 18.8908 30.326 19.0048 30.56C19.1248 30.794 19.2868 30.974 19.4908 31.1C19.7008 31.226 19.9438 31.289 20.2198 31.289ZM25.5027 32.126C25.0467 32.126 24.6447 32.027 24.2967 31.829C23.9487 31.625 23.6757 31.343 23.4777 30.983C23.2857 30.623 23.1897 30.206 23.1897 29.732C23.1897 29.258 23.2857 28.844 23.4777 28.49C23.6757 28.13 23.9487 27.851 24.2967 27.653C24.6447 27.449 25.0467 27.347 25.5027 27.347C25.8567 27.347 26.1717 27.407 26.4477 27.527C26.7297 27.647 26.9697 27.824 27.1677 28.058C27.3657 28.286 27.5127 28.568 27.6087 28.904L26.8437 29.12H26.7447C26.6487 28.826 26.4867 28.595 26.2587 28.427C26.0367 28.259 25.7847 28.175 25.5027 28.175C25.2147 28.175 24.9657 28.241 24.7557 28.373C24.5457 28.505 24.3807 28.688 24.2607 28.922C24.1467 29.15 24.0897 29.42 24.0897 29.732C24.0897 30.044 24.1467 30.317 24.2607 30.551C24.3807 30.785 24.5457 30.968 24.7557 31.1C24.9657 31.226 25.2147 31.289 25.5027 31.289C25.7067 31.289 25.8927 31.253 26.0607 31.181C26.2287 31.109 26.3727 31.004 26.4927 30.866C26.6187 30.722 26.7147 30.551 26.7807 30.353H26.8797L27.6537 30.569C27.5457 30.905 27.3897 31.19 27.1857 31.424C26.9817 31.658 26.7387 31.835 26.4567 31.955C26.1807 32.069 25.8627 32.126 25.5027 32.126Z" fill="#1668DA"/>
</svg>
