<svg width="16" height="16" viewBox="0 0 16 16" fill="none" xmlns="http://www.w3.org/2000/svg">
<path fill-rule="evenodd" clip-rule="evenodd" d="M2.16602 14.6665C2.16602 14.3904 2.38987 14.1665 2.66602 14.1665H13.3327C13.6088 14.1665 13.8327 14.3904 13.8327 14.6665C13.8327 14.9426 13.6088 15.1665 13.3327 15.1665H2.66602C2.38987 15.1665 2.16602 14.9426 2.16602 14.6665Z" fill="#73ADFF"/>
<path d="M7.67939 9.9528L7.6794 9.95279L11.6239 6.00833C11.087 5.78489 10.4512 5.41787 9.84983 4.81653C9.24839 4.21509 8.88135 3.57914 8.65792 3.04224L4.71339 6.98678L4.71338 6.98679C4.40557 7.29459 4.25166 7.44851 4.11929 7.61821C3.96315 7.81839 3.82929 8.035 3.72006 8.26418C3.62747 8.45846 3.55864 8.66495 3.42098 9.07794L2.69505 11.2557C2.62731 11.4589 2.6802 11.683 2.83169 11.8345C2.98317 11.986 3.20723 12.0389 3.41046 11.9711L5.58824 11.2452C6.00122 11.1075 6.20772 11.0387 6.402 10.9461C6.63118 10.8369 6.84778 10.703 7.04797 10.5469C7.21767 10.4145 7.37159 10.2606 7.67939 9.9528Z" fill="#73ADFF"/>
<path d="M12.7184 4.91379C13.5374 4.09475 13.5374 2.76682 12.7184 1.94778C11.8994 1.12874 10.5714 1.12874 9.75239 1.94778L9.2793 2.42087C9.28578 2.44043 9.2925 2.46026 9.29947 2.48035C9.47287 2.98016 9.80004 3.63537 10.4155 4.25084C11.031 4.86632 11.6862 5.19349 12.186 5.36689C12.206 5.37383 12.2257 5.38052 12.2452 5.38697L12.7184 4.91379Z" fill="#73ADFF"/>
</svg>
