<svg width="14" height="16" viewBox="0 0 14 16" fill="none" xmlns="http://www.w3.org/2000/svg">
<path d="M10.9635 14.745C10.1651 15.5189 9.29339 15.3967 8.45424 15.0301C7.5662 14.6554 6.75149 14.6391 5.81457 15.0301C4.64138 15.5352 4.0222 15.3886 3.32155 14.745C-0.654245 10.647 -0.0676523 4.40628 4.44585 4.17816C5.54571 4.23519 6.31154 4.78104 6.95516 4.82993C7.91652 4.6344 8.83715 4.07224 9.86369 4.14557C11.0939 4.24333 12.0227 4.73216 12.6337 5.61205C10.0918 7.13556 10.6947 10.484 13.0248 11.4209C12.5604 12.643 11.9575 13.8569 10.9554 14.7531L10.9635 14.745ZM6.87369 4.12927C6.75149 2.31247 8.22612 0.813396 9.92072 0.666748C10.157 2.7687 8.01429 4.33295 6.87369 4.12927Z" fill="#242424"/>
</svg>
