<svg width="16" height="16" viewBox="0 0 16 16" fill="none" xmlns="http://www.w3.org/2000/svg">
<path d="M5.70185 1.06822C4.18847 1.58259 2.88334 2.55889 1.97815 3.8537C1.07296 5.14851 0.615436 6.69359 0.672769 8.26199C0.730102 9.8304 1.29928 11.3395 2.29669 12.5675C3.2941 13.7956 4.66717 14.6779 6.21423 15.0849C7.46846 15.4019 8.78253 15.4159 10.0435 15.1254C11.1858 14.874 12.2418 14.3363 13.1083 13.5649C14.0101 12.7376 14.6646 11.685 15.0016 10.5205C15.3679 9.25406 15.433 7.92227 15.1921 6.62734H8.14896V9.48979H12.2279C12.1464 9.94633 11.9717 10.3821 11.7143 10.7709C11.4569 11.1598 11.122 11.4937 10.7298 11.7529C10.2317 12.0757 9.67024 12.2929 9.08142 12.3905C8.49088 12.4981 7.88515 12.4981 7.2946 12.3905C6.69606 12.2693 6.12985 12.0272 5.63203 11.6798C4.83228 11.1252 4.23178 10.3372 3.91621 9.42835C3.59531 8.50248 3.59531 7.49872 3.91621 6.57285C4.14084 5.92386 4.51217 5.33296 5.0025 4.84425C5.56363 4.27471 6.27402 3.8676 7.05576 3.66759C7.83749 3.46758 8.66035 3.48239 9.43405 3.7104C10.0385 3.89218 10.5912 4.20978 11.0481 4.63788C11.508 4.1896 11.9672 3.74016 12.4255 3.28955C12.6622 3.04725 12.9201 2.81653 13.1532 2.56843C12.4557 1.9325 11.637 1.43766 10.744 1.11228C9.11775 0.533748 7.33836 0.5182 5.70185 1.06822Z" fill="#242424"/>
</svg>
